<?xml version="1.0" encoding="UTF-8" standalone="no"?><!DOCTYPE svg PUBLIC "-//W3C//DTD SVG 1.1//EN" "http://www.w3.org/Graphics/SVG/1.1/DTD/svg11.dtd"><svg width="100%" height="100%" viewBox="0 0 3334 2500" version="1.1" xmlns="http://www.w3.org/2000/svg" xmlns:xlink="http://www.w3.org/1999/xlink" xml:space="preserve" xmlns:serif="http://www.serif.com/" style="fill-rule:evenodd;clip-rule:evenodd;stroke-linejoin:round;stroke-miterlimit:2;"><g><path d="M242.921,1782.76l897.363,-1161.92c-0,0 1217.17,-12.357 1217.17,-12.357c88.241,134.971 731.436,1118.78 731.436,1118.78c10.067,15.398 30.742,19.727 46.14,9.659c15.398,-10.067 19.727,-30.741 9.66,-46.14l-741.424,-1134.05c-6.222,-9.518 -16.867,-15.207 -28.238,-15.091l-1251.59,12.706c-10.207,0.104 -19.804,4.878 -26.043,12.957l-907.243,1174.71c-11.245,14.56 -8.553,35.511 6.007,46.756c14.56,11.245 35.511,8.554 46.756,-6.007Z" style="fill:#3f5cd5;"/><path d="M216.701,1796.36l1314.49,-6.353c10.749,-0.052 20.813,-5.284 27.031,-14.053l836.086,-1179.16c10.641,-15.008 7.096,-35.831 -7.911,-46.472c-15.008,-10.641 -35.831,-7.096 -46.472,7.911l-826.181,1165.19c-0,-0 -1297.36,6.27 -1297.36,6.27c-18.397,0.089 -33.261,15.097 -33.172,33.494c0.089,18.397 15.097,33.261 33.494,33.172Z" style="fill:#3f5cd5;"/><path d="M300.679,1958.37l2732.38,-10.165c18.397,-0.069 33.277,-15.06 33.209,-33.457c-0.068,-18.397 -15.06,-33.278 -33.457,-33.21l-2732.38,10.166c-18.397,0.068 -33.278,15.06 -33.209,33.457c0.068,18.397 15.06,33.277 33.457,33.209Z" style="fill:#3f5cd5;"/><path d="M3068.17,1911.42l-2.541,-319.568c-0.146,-18.397 -15.201,-33.214 -33.597,-33.067c-18.397,0.146 -33.214,15.2 -33.068,33.597l2.542,319.568c0.146,18.397 15.2,33.214 33.597,33.067c18.397,-0.146 33.213,-15.201 33.067,-33.597Z" style="fill:#3f5cd5;"/><path d="M264.528,1766.2l-0,155.654c-0,18.397 14.936,33.333 33.333,33.333c18.397,0 33.333,-14.936 33.333,-33.333l0,-155.654c0,-18.397 -14.936,-33.334 -33.333,-33.334c-18.397,0 -33.333,14.937 -33.333,33.334Z" style="fill:#3f5cd5;"/><path d="M1493.88,1767.95l-0.635,136.594c-0.086,18.397 14.781,33.403 33.178,33.488c18.397,0.086 33.402,-14.781 33.488,-33.178l0.635,-136.594c0.086,-18.397 -14.781,-33.403 -33.178,-33.488c-18.397,-0.086 -33.402,14.781 -33.488,33.178Z" style="fill:#3f5cd5;"/><path d="M2332.52,578.978l33.275,1331.61c0.46,18.392 15.764,32.95 34.156,32.49c18.391,-0.459 32.949,-15.764 32.49,-34.155l-33.275,-1331.61c-0.46,-18.391 -15.765,-32.95 -34.156,-32.49c-18.391,0.459 -32.95,15.764 -32.49,34.156Z" style="fill:#3f5cd5;"/><path d="M2067.11,1928.2l332.275,-411.055c11.565,-14.307 9.339,-35.313 -4.969,-46.878c-14.307,-11.565 -35.312,-9.339 -46.877,4.968l-332.275,411.055c-11.565,14.307 -9.339,35.312 4.968,46.878c14.308,11.565 35.313,9.339 46.878,-4.968Z" style="fill:#3f5cd5;"/><path d="M2056.42,1888.95l43.771,-315.274c0,0 269.149,-55 269.149,-55c18.024,-3.683 29.668,-21.307 25.985,-39.332c-3.684,-18.024 -21.308,-29.668 -39.333,-25.985l-292.249,59.721c-13.843,2.829 -24.399,14.079 -26.343,28.074l-47.014,338.628c-2.529,18.222 10.211,35.071 28.433,37.601c18.223,2.53 35.071,-10.211 37.601,-28.433Z" style="fill:#3f5cd5;"/></g></svg>